<?xml version="1.0" encoding="UTF-8"?>
<svg id="Capa_1" data-name="Capa 1" xmlns="http://www.w3.org/2000/svg" viewBox="0 0 101.25 117.11">
  <defs>
    <style>
      .cls-1 {
        fill: #71b136;
        stroke: #71b136;
        stroke-miterlimit: 10;
      }
    </style>
  </defs>
  <g id="Capa_1-2" data-name="Capa 1-2">
    <polygon class="cls-1" points=".5 29.32 34.25 10.27 68.33 29.32 68.33 45.36 34.42 25.97 .5 45.36 .5 29.32"/>
    <polygon class="cls-1" points="71.35 27.81 71.35 66.4 84.05 58.72 84.05 19.62 51.04 .58 37.6 8.59 71.35 27.81"/>
    <polygon class="cls-1" points="87.38 21.97 100.75 29.98 100.75 68.41 68.33 87.8 53.97 80.11 87.05 60.73 87.38 21.97"/>
    <polygon class="cls-1" points="100.75 72.42 100.75 87.8 68.33 106.85 32.92 87.8 32.92 72.42 68.33 91.14 100.75 72.42"/>
    <polygon class="cls-1" points="16.87 97.48 51.04 116.53 64 108.85 29.57 89.64 30.58 50.37 16.87 58.06 16.87 97.48"/>
    <polygon class="cls-1" points=".5 48.7 34.42 29.65 47.95 37.33 13.2 56.38 13.87 95.49 .5 87.8 .5 48.7"/>
  </g>
</svg>