<?xml version="1.0" encoding="UTF-8"?>
<svg id="Capa_1" data-name="Capa 1" xmlns="http://www.w3.org/2000/svg" viewBox="0 0 445.64 164.32">
  <defs>
    
  </defs>
  <g id="Capa_1-2" data-name="Capa 1-2">
    <polygon class="cls-2" points=".5 41.02 47.99 14.22 95.95 41.02 95.95 63.59 48.24 36.31 .5 63.59 .5 41.02"></polygon>
    <polygon class="cls-2" points="100.2 38.9 100.2 93.21 118.06 82.39 118.06 27.38 71.62 .58 52.7 11.86 100.2 38.9"></polygon>
    <polygon class="cls-2" points="122.75 30.67 141.57 41.95 141.57 96.03 95.95 123.32 75.74 112.49 122.29 85.22 122.75 30.67"></polygon>
    <polygon class="cls-2" points="141.57 101.67 141.57 123.32 95.95 150.12 46.11 123.32 46.11 101.67 95.95 128.01 141.57 101.67"></polygon>
    <polygon class="cls-2" points="23.54 136.94 71.62 163.74 89.85 152.93 41.41 125.9 42.82 70.65 23.54 81.46 23.54 136.94"></polygon>
    <polygon class="cls-2" points=".5 68.29 48.24 41.49 67.27 52.3 18.37 79.1 19.31 134.13 .5 123.32 .5 68.29"></polygon>
  </g>
  <text class="cls-1" transform="translate(166.83 76.99)"><tspan x="0" y="0">Conn</tspan><tspan class="cls-3" x="161.18" y="0">e</tspan><tspan x="198.36" y="0">xa</tspan></text>
  <text class="cls-1" transform="translate(167.9 129.99)"><tspan x="0" y="0">Se</tspan><tspan class="cls-5" x="80.56" y="0">r</tspan><tspan class="cls-4" x="109.68" y="0">vices</tspan></text>
</svg>